# Blender v2.83.5 OBJ File: ''
# www.blender.org
mtllib large_box.mtl
o tall_box
v -0.007523 0.070704 -0.080266
v -0.157254 0.070640 -0.159833
v -0.121810 0.070732 -0.044822
v -0.121810 -0.167968 -0.044632
v -0.157254 0.070640 -0.159833
v -0.157254 -0.168060 -0.159643
v -0.157254 0.070640 -0.159833
v -0.042967 -0.168088 -0.195809
v -0.157254 -0.168060 -0.159643
v -0.042967 0.070612 -0.195999
v -0.007523 -0.167996 -0.080076
v -0.042967 -0.168088 -0.195809
v -0.007523 0.070704 -0.080266
v -0.121810 -0.167968 -0.044632
v -0.007523 -0.167996 -0.080076
v -0.042967 0.070612 -0.195999
v -0.121810 0.070732 -0.044822
v -0.042967 0.070612 -0.195999
v -0.007523 0.070704 -0.080266
v -0.121810 0.070732 -0.044822
vn -0.0000 1.0000 -0.0008
vn -0.9556 0.0002 0.2945
vn -0.3017 -0.0008 -0.9534
vn 0.9562 -0.0002 -0.2928
vn 0.2962 0.0008 0.9551
usemtl Default_OBJ
s 1
f 1//1 2//1 3//1
f 4//2 5//2 6//2
f 7//3 8//3 9//3
f 10//4 11//4 12//4
f 13//5 14//5 15//5
f 1//1 16//1 2//1
f 4//2 17//2 5//2
f 7//3 18//3 8//3
f 10//4 19//4 11//4
f 13//5 20//5 14//5
