# Blender v2.83.5 OBJ File: ''
# www.blender.org
mtllib sol.mtl
o Cube.003_Cube.004
v 0.198428 -0.156092 -0.171796
v -0.178853 -0.156092 -0.178683
v 0.193105 -0.156092 0.119850
v -0.184176 -0.156092 0.112963
v 0.198428 -0.146104 -0.171796
v -0.178853 -0.146104 -0.178683
v 0.193105 -0.146104 0.119850
v -0.184176 -0.146104 0.112963
vt 0.625000 0.000000
vt 0.375000 0.000000
vt 0.375000 0.250000
vt 0.625000 0.250000
vt 0.375000 0.500000
vt 0.625000 0.500000
vt 0.375000 0.750000
vt 0.625000 0.750000
vt 0.375000 1.000000
vt 0.125000 0.500000
vt 0.125000 0.750000
vt 0.875000 0.500000
vt 0.625000 1.000000
vt 0.875000 0.750000
vn 0.0000 -1.0000 0.0000
vn -0.0183 0.0000 0.9998
vn -0.0000 1.0000 -0.0000
vn 0.0183 0.0000 -0.9998
vn 0.9998 0.0000 0.0183
vn -0.9998 0.0000 -0.0183
usemtl None
s off
f 2/1/1 1/2/1 3/3/1
f 4/4/2 3/3/2 7/5/2
f 8/6/3 7/5/3 5/7/3
f 6/8/4 5/7/4 1/9/4
f 7/5/5 3/10/5 1/11/5
f 4/12/6 8/6/6 6/8/6
f 2/1/1 3/3/1 4/4/1
f 4/4/2 7/5/2 8/6/2
f 8/6/3 5/7/3 6/8/3
f 6/8/4 1/9/4 2/13/4
f 7/5/5 1/11/5 5/7/5
f 4/12/6 6/8/6 2/14/6
