# Blender v2.83.5 OBJ File: ''
# www.blender.org
mtllib left.mtl
o Cube.001_Cube.002
v -0.188405 0.288561 -0.177841
v -0.188405 -0.155901 -0.177841
v -0.193728 -0.155901 0.113763
v -0.193728 0.288561 0.113763
v -0.183742 -0.155901 0.113945
v -0.183742 0.288561 0.113945
v -0.178419 -0.155901 -0.177659
v -0.178419 0.288561 -0.177659
vt 0.625000 0.000000
vt 0.375000 0.000000
vt 0.375000 0.250000
vt 0.625000 0.250000
vt 0.375000 0.500000
vt 0.625000 0.500000
vt 0.375000 0.750000
vt 0.625000 0.750000
vt 0.375000 1.000000
vt 0.125000 0.500000
vt 0.125000 0.750000
vt 0.875000 0.500000
vt 0.625000 1.000000
vt 0.875000 0.750000
vn -0.9998 0.0000 -0.0183
vn -0.0182 -0.0000 0.9998
vn 0.9998 0.0000 0.0183
vn 0.0182 0.0000 -0.9998
vn 0.0000 -1.0000 -0.0000
vn 0.0000 1.0000 -0.0000
usemtl None.002
s 1
f 1/1/1 2/2/1 3/3/1
f 4/4/2 3/3/2 5/5/2
f 6/6/3 5/5/3 7/7/3
f 8/8/4 7/7/4 2/9/4
f 5/5/5 3/10/5 2/11/5
f 4/12/6 6/6/6 8/8/6
f 1/1/1 3/3/1 4/4/1
f 4/4/2 5/5/2 6/6/2
f 6/6/3 7/7/3 8/8/3
f 8/8/4 2/9/4 1/13/4
f 5/5/5 2/11/5 7/7/5
f 4/12/6 8/8/6 1/14/6
