# Blender v2.83.5 OBJ File: ''
# www.blender.org
o Cube_Cube.001
v 0.446003 0.315714 0.438576
v 0.446003 0.306179 0.438576
v -1.272109 0.315714 -2.230533
v -1.272109 0.306179 -2.230533
v 0.203824 0.315714 0.594467
v 0.203824 0.306179 0.594467
v -1.514288 0.315714 -2.074641
v -1.514288 0.306179 -2.074641
vt 0.625000 0.000000
vt 0.375000 0.250000
vt 0.375000 0.000000
vt 0.625000 0.250000
vt 0.375000 0.500000
vt 0.625000 0.500000
vt 0.375000 0.750000
vt 0.625000 0.750000
vt 0.375000 1.000000
vt 0.125000 0.750000
vt 0.125000 0.500000
vt 0.875000 0.500000
vt 0.625000 1.000000
vt 0.875000 0.750000
vn 0.8409 0.0000 -0.5413
vn -0.5413 0.0000 -0.8409
vn -0.8409 0.0000 0.5413
vn 0.5413 0.0000 0.8409
vn 0.0000 1.0000 0.0000
vn 0.0000 -1.0000 0.0000
s off
f 2/1/1 3/2/1 1/3/1
f 4/4/2 7/5/2 3/2/2
f 8/6/3 5/7/3 7/5/3
f 6/8/4 1/9/4 5/7/4
f 7/5/5 1/10/5 3/11/5
f 4/12/6 6/8/6 8/6/6
f 2/1/1 4/4/1 3/2/1
f 4/4/2 8/6/2 7/5/2
f 8/6/3 6/8/3 5/7/3
f 6/8/4 2/13/4 1/9/4
f 7/5/5 5/7/5 1/10/5
f 4/12/6 2/14/6 6/8/6
